<svg width="19" height="18" fill="none" xmlns="http://www.w3.org/2000/svg"><path fill-rule="evenodd" clip-rule="evenodd" d="M7.88 1.114c.674-1.162 2.353-1.162 3.027 0l2.066 3.56c.19.328.519.552.894.608l3.43.518c1.495.226 2.019 2.114.855 3.078l-2.5 2.07a1.25 1.25 0 00-.43 1.197l.7 3.676c.275 1.44-1.237 2.559-2.534 1.876L9.976 15.9a1.25 1.25 0 00-1.165 0L5.4 17.697c-1.297.683-2.809-.436-2.534-1.876l.7-3.676a1.25 1.25 0 00-.43-1.196l-2.5-2.07c-1.164-.965-.64-2.853.855-3.079l3.43-.518a1.25 1.25 0 00.895-.608l2.065-3.56zm1.73.753a.25.25 0 00-.433 0l-2.065 3.56a2.75 2.75 0 01-1.968 1.339l-3.43.518a.25.25 0 00-.122.44l2.5 2.07a2.75 2.75 0 01.946 2.632l-.7 3.676a.25.25 0 00.362.268l3.412-1.797a2.75 2.75 0 012.563 0l3.412 1.797a.25.25 0 00.362-.268l-.7-3.676a2.75 2.75 0 01.947-2.632l2.499-2.07a.25.25 0 00-.122-.44l-3.43-.518a2.75 2.75 0 01-1.968-1.34L9.61 1.868z" fill="#212946"/></svg>