<svg width="17" height="16" fill="none" xmlns="http://www.w3.org/2000/svg"><path d="M5.93 4.56c.14.005.298.012.447.344.099.22.266.627.402.958.105.257.192.469.214.512.05.1.08.214.016.347l-.022.045c-.053.109-.09.186-.178.286a6.946 6.946 0 00-.11.133 3.27 3.27 0 01-.188.214c-.1.1-.203.206-.088.404.115.198.517.85 1.11 1.375.638.568 1.192.808 1.473.928.054.024.098.043.13.06.2.098.318.083.433-.05.115-.134.498-.58.632-.778.13-.198.264-.167.448-.099.183.069 1.163.549 1.362.648l.11.054c.139.066.233.111.273.178.05.084.05.48-.115.945-.168.465-.98.91-1.347.945l-.105.012c-.337.04-.764.092-2.287-.507-1.877-.738-3.116-2.57-3.366-2.94l-.041-.059-.004-.005c-.114-.153-.811-1.086-.811-2.048 0-.92.453-1.4.66-1.619a5.49 5.49 0 00.036-.038.736.736 0 01.532-.248c.134 0 .268 0 .383.004z" fill="#212946"/><path fill-rule="evenodd" clip-rule="evenodd" d="M.743 15.519a.31.31 0 00.377.381l3.565-.93a7.737 7.737 0 003.682.933h.004c4.245 0 7.705-3.44 7.705-7.67 0-2.05-.8-3.977-2.254-5.425A7.673 7.673 0 008.372.561C4.125.56.665 4 .665 8.23c0 1.345.355 2.667 1.03 3.832L.743 15.52zm2.072-3.148c.082-.3.041-.621-.115-.89a6.482 6.482 0 01-.873-3.251c0-3.583 2.935-6.509 6.544-6.509 1.756 0 3.395.679 4.632 1.91a6.444 6.444 0 011.913 4.602c0 3.583-2.935 6.509-6.545 6.509h-.004a6.576 6.576 0 01-3.13-.793 1.16 1.16 0 00-.845-.103l-2.138.559.56-2.034z" fill="#212946"/></svg>