<svg width="483" height="122" viewBox="0 0 483 122" fill="none" xmlns="http://www.w3.org/2000/svg">
<path fill-rule="evenodd" clip-rule="evenodd" d="M60.6492 3.90485e-05C51.8365 -0.0071111 43.1282 1.90793 35.1316 5.61165C27.135 9.31537 20.0423 14.7186 14.3482 21.4448C8.65411 28.1709 4.49551 36.058 2.16236 44.5563C-0.170788 53.0545 -0.622346 61.9594 0.83917 70.65L49.2692 32.72L50.4292 31.81L99.0092 80.41V13.68C88.1906 4.81887 74.6335 -0.0158519 60.6492 3.90485e-05ZM40.5492 55.14L50.6792 36.77L99.0092 85.12V107.6C88.8187 115.951 76.1753 120.738 63.0092 121.23L74.6592 115.39L77.0392 114.2L74.9292 112.58L39.3692 85.36L59.1692 75.46L61.3192 74.38L59.5592 72.75L40.5592 55.14H40.5492ZM35.2292 86.38L70.8292 113.61L55.8992 121.06C43.0585 120.055 30.8716 114.987 21.1048 106.59C11.3381 98.1934 4.49911 86.9046 1.57917 74.36L44.8892 40.36L36.9992 54.65L36.3692 55.82L37.3692 56.7L55.5692 73.55L35.5692 83.55L33.1792 84.74L35.2292 86.38Z" fill="#009EE3"/>
<path fill-rule="evenodd" clip-rule="evenodd" d="M120.519 15.3501V41.7601L147.379 15.3501H156.519L134.169 36.7101L157.409 68.3101H148.499L129.349 41.5201L120.519 49.7601V68.3101H113.439V15.3501H120.519Z" fill="#3B3B3A"/>
<path fill-rule="evenodd" clip-rule="evenodd" d="M191.369 69.1499C189.936 69.2225 188.533 68.7306 187.459 67.7799C186.459 66.8599 185.999 65.3699 185.999 63.2899C184.407 65.2663 182.344 66.8104 179.999 67.7799C177.629 68.7057 175.103 69.1707 172.559 69.1499C170.913 69.1611 169.271 68.9764 167.669 68.5999C166.223 68.2593 164.861 67.6263 163.669 66.7399C162.494 65.8667 161.55 64.7203 160.919 63.3999C160.245 61.7649 159.909 60.0108 159.93 58.2427C159.95 56.4745 160.327 54.7288 161.039 53.1099C161.739 51.7763 162.738 50.6229 163.959 49.7399C165.218 48.8421 166.622 48.1657 168.109 47.7399C169.669 47.2899 171.259 46.9199 172.889 46.6199C174.519 46.3199 176.269 46.0199 177.819 45.8399C179.206 45.6997 180.58 45.4523 181.929 45.0999C182.966 44.8577 183.932 44.3747 184.749 43.6899C185.101 43.3373 185.373 42.9124 185.546 42.4446C185.719 41.9768 185.788 41.477 185.749 40.9799C185.803 39.8159 185.533 38.6597 184.969 37.6399C184.481 36.834 183.792 36.1688 182.969 35.7099C182.112 35.252 181.181 34.9506 180.219 34.8199C179.226 34.6695 178.223 34.5927 177.219 34.5899C174.897 34.5067 172.593 35.0343 170.539 36.1199C168.759 37.1266 167.795 39.0466 167.649 41.8799H161.369C161.394 39.7915 161.904 37.7375 162.859 35.8799C163.707 34.2797 164.928 32.9076 166.419 31.8799C167.973 30.8371 169.71 30.0974 171.539 29.6999C173.533 29.244 175.573 29.0192 177.619 29.0299C179.346 29.028 181.07 29.1517 182.779 29.3999C184.39 29.646 185.944 30.1777 187.369 30.9699C188.744 31.7383 189.895 32.8515 190.709 34.1999C191.616 35.8577 192.051 37.7321 191.969 39.6199V59.3699C191.931 60.4629 192.018 61.5568 192.229 62.6299C192.395 63.3299 192.976 63.6799 193.969 63.6799C194.627 63.6562 195.278 63.5314 195.899 63.3099V68.1899C194.502 68.9134 192.94 69.2582 191.369 69.1899V69.1499ZM182.539 49.8299C181.259 50.1099 179.909 50.3299 178.539 50.4999C177.169 50.6699 175.709 50.8699 174.279 51.0899C172.951 51.284 171.654 51.647 170.419 52.1699C169.328 52.6301 168.371 53.3595 167.639 54.2899C166.865 55.3778 166.484 56.6968 166.559 58.0299C166.529 58.9504 166.747 59.8619 167.189 60.6699C167.591 61.3674 168.149 61.9629 168.819 62.4099C169.541 62.8919 170.349 63.2314 171.199 63.4099C172.112 63.61 173.044 63.7106 173.979 63.7099C175.796 63.7512 177.606 63.4597 179.319 62.8499C180.652 62.366 181.884 61.6367 182.949 60.6999C183.83 59.9144 184.539 58.954 185.029 57.8799C185.445 56.9822 185.673 56.0089 185.699 55.0199V48.5599C184.765 49.2077 183.7 49.6414 182.579 49.8299H182.539Z" fill="#3B3B3A"/>
<path fill-rule="evenodd" clip-rule="evenodd" d="M207.779 29.9701V35.6101H207.949C209.98 32.6643 212.997 30.5415 216.455 29.6246C219.913 28.7077 223.586 29.0573 226.809 30.6101C227.788 31.131 228.654 31.8413 229.356 32.6996C230.058 33.558 230.583 34.5473 230.899 35.6101C232.134 33.5744 233.891 31.9066 235.989 30.7801C238.123 29.6406 240.51 29.056 242.929 29.0801C244.696 29.0585 246.458 29.2704 248.169 29.7101C249.627 30.0904 250.99 30.7717 252.169 31.7101C253.302 32.6292 254.194 33.8097 254.769 35.1501C255.427 36.7645 255.743 38.4975 255.699 40.2401V68.3501H249.369V43.1601C249.375 42.0398 249.275 40.9214 249.069 39.8201C248.898 38.846 248.515 37.9211 247.949 37.1101C247.37 36.3144 246.59 35.6865 245.689 35.2901C244.497 34.8045 243.216 34.5762 241.929 34.6201C240.585 34.5485 239.24 34.749 237.976 35.2095C236.711 35.67 235.552 36.3811 234.569 37.3001C233.664 38.2432 232.96 39.3609 232.501 40.5851C232.042 41.8093 231.837 43.1142 231.899 44.4201V68.3201H225.589V43.1601C225.595 42.0147 225.482 40.8717 225.249 39.7501C225.056 38.7774 224.664 37.8549 224.099 37.0401C223.539 36.2638 222.783 35.6496 221.909 35.2601C220.791 34.7992 219.588 34.5811 218.379 34.6201C216.732 34.5774 215.102 34.9633 213.649 35.7401C211.307 37.0169 209.524 39.1203 208.649 41.6401C208.322 42.5325 208.137 43.4705 208.099 44.4201V68.3201H201.789V29.9701H207.779Z" fill="#3B3B3A"/>
<path fill-rule="evenodd" clip-rule="evenodd" d="M288.069 36.64C286.253 35.2264 283.987 34.5161 281.689 34.64C279.706 34.5757 277.739 35.0125 275.969 35.91C274.489 36.7043 273.229 37.8516 272.299 39.25C271.343 40.7097 270.665 42.3337 270.299 44.04C269.904 45.8838 269.706 47.7644 269.709 49.65C269.705 51.4059 269.917 53.1556 270.339 54.86C270.738 56.462 271.415 57.9816 272.339 59.35C273.238 60.6604 274.434 61.7398 275.829 62.5C277.405 63.3325 279.168 63.7457 280.949 63.7C283.613 63.8598 286.234 62.9777 288.259 61.24C290.125 59.3956 291.271 56.9449 291.489 54.33H297.949C297.282 59.0834 295.512 62.75 292.639 65.33C289.766 67.91 285.896 69.1967 281.029 69.19C278.374 69.2398 275.736 68.7604 273.269 67.78C271.106 66.9047 269.178 65.5348 267.639 63.78C266.088 61.9715 264.93 59.8601 264.239 57.58C263.447 55.0226 263.059 52.3571 263.089 49.68C263.069 46.9539 263.443 44.2392 264.199 41.62C264.879 39.2416 266.024 37.0219 267.569 35.09C269.1 33.2161 271.039 31.7178 273.239 30.71C275.729 29.5842 278.437 29.0208 281.169 29.06C283.235 29.0459 285.293 29.3083 287.289 29.84C289.122 30.3223 290.847 31.1505 292.369 32.28C293.845 33.3898 295.071 34.7967 295.969 36.41C296.959 38.2381 297.565 40.2493 297.749 42.32H291.219C290.852 40.1212 289.74 38.1156 288.069 36.64Z" fill="#3B3B3A"/>
<path fill-rule="evenodd" clip-rule="evenodd" d="M311.369 15.35V35.61H311.509C311.973 34.4691 312.683 33.4448 313.589 32.61C314.482 31.796 315.494 31.1218 316.589 30.61C317.704 30.0928 318.875 29.7069 320.079 29.46C321.226 29.2095 322.395 29.0755 323.569 29.06C325.714 28.9844 327.853 29.324 329.869 30.06C331.445 30.6743 332.846 31.6668 333.949 32.95C335.01 34.2312 335.759 35.7406 336.139 37.36C336.576 39.2211 336.788 41.1282 336.769 43.04V68.26H330.469V42.26C330.52 41.2282 330.363 40.1967 330.005 39.2274C329.648 38.2582 329.098 37.3712 328.389 36.62C327.626 35.9065 326.727 35.3544 325.746 34.997C324.765 34.6395 323.722 34.4841 322.679 34.54C320.969 34.5013 319.268 34.8074 317.679 35.44C316.324 35.9917 315.118 36.8551 314.159 37.96C313.204 39.0774 312.486 40.377 312.049 41.78C311.564 43.3299 311.324 44.9461 311.339 46.57V68.24H305.029V15.24L311.369 15.35Z" fill="#3B3B3A"/>
<path fill-rule="evenodd" clip-rule="evenodd" d="M375.719 69.1499C374.284 69.2219 372.877 68.7303 371.799 67.7799C370.799 66.8599 370.349 65.3699 370.349 63.2899C368.757 65.2663 366.694 66.8104 364.349 67.7799C361.975 68.7056 359.447 69.1705 356.899 69.1499C355.256 69.1606 353.618 68.9759 352.019 68.5999C350.572 68.2601 349.211 67.627 348.019 66.7399C346.85 65.8635 345.91 64.7177 345.279 63.3999C344.601 61.7664 344.261 60.0123 344.28 58.2436C344.298 56.475 344.676 54.7285 345.389 53.1099C346.09 51.7736 347.093 50.6195 348.319 49.7399C349.576 48.8383 350.98 48.1616 352.469 47.7399C354.043 47.2868 355.638 46.913 357.249 46.6199C358.979 46.2799 360.619 46.0199 362.179 45.8399C363.566 45.6989 364.94 45.4515 366.289 45.0999C367.324 44.8576 368.286 44.3745 369.099 43.6899C369.453 43.3385 369.726 42.9138 369.899 42.4457C370.072 41.9775 370.14 41.4772 370.099 40.9799C370.153 39.8159 369.883 38.6597 369.319 37.6399C368.834 36.8319 368.144 36.1662 367.319 35.7099C366.467 35.2499 365.539 34.9483 364.579 34.8199C363.586 34.6704 362.583 34.5935 361.579 34.5899C359.26 34.5066 356.96 35.0342 354.909 36.1199C353.129 37.1199 352.159 39.0499 352.019 41.8799H345.669C345.696 39.7929 346.202 37.74 347.149 35.8799C348 34.2817 349.22 32.9102 350.709 31.8799C352.264 30.839 354.001 30.0995 355.829 29.6999C357.827 29.2441 359.87 29.0193 361.919 29.0299C363.642 29.0276 365.364 29.1513 367.069 29.3999C368.695 29.6231 370.266 30.1381 371.709 30.9199C373.088 31.6826 374.241 32.7971 375.049 34.1499C375.956 35.8077 376.392 37.6821 376.309 39.5699V59.3199C376.276 60.4128 376.363 61.5061 376.569 62.5799C376.749 63.2799 377.329 63.6299 378.319 63.6299C378.977 63.6045 379.628 63.4797 380.249 63.2599V68.1399C378.852 68.8634 377.29 69.2081 375.719 69.1399V69.1499ZM366.889 49.8299C365.599 50.1099 364.249 50.3299 362.889 50.4999C361.529 50.6699 360.049 50.8699 358.619 51.0899C357.292 51.284 355.994 51.647 354.759 52.1699C353.668 52.6301 352.711 53.3595 351.979 54.2899C351.188 55.3821 350.796 56.7131 350.869 58.0599C350.84 58.9804 351.057 59.8919 351.499 60.6999C351.894 61.4029 352.453 61.9998 353.129 62.4399C353.849 62.9203 354.653 63.2597 355.499 63.4399C356.416 63.6395 357.351 63.7401 358.289 63.7399C360.103 63.7813 361.91 63.4898 363.619 62.8799C364.957 62.3982 366.191 61.6688 367.259 60.7299C368.138 59.9442 368.843 58.9837 369.329 57.9099C369.75 57.0138 369.978 56.0396 369.999 55.0499V48.5899C369.065 49.2255 368.004 49.6487 366.889 49.8299Z" fill="#3B3B3A"/>
<path fill-rule="evenodd" clip-rule="evenodd" d="M402.509 29.98V35.53H394.889V59.36C394.873 59.9585 394.934 60.5567 395.069 61.14C395.185 61.5443 395.436 61.8971 395.779 62.14C396.21 62.4208 396.706 62.586 397.219 62.62C398.019 62.7097 398.824 62.7497 399.629 62.74H402.509V68.28H397.689C396.285 68.2988 394.883 68.1883 393.499 67.95C392.469 67.7876 391.499 67.3642 390.679 66.72C389.915 66.0531 389.362 65.1771 389.089 64.2C388.701 62.8009 388.525 61.3513 388.569 59.9V35.53H382.039V29.98H388.569V18.47H394.879V29.98H402.509Z" fill="#3B3B3A"/>
<path fill-rule="evenodd" clip-rule="evenodd" d="M416.189 15.3501V46.7301L433.709 29.9601H442.159L426.949 43.9101L443.279 68.3101H435.259L422.119 48.2701L416.189 53.7701V68.3101H409.879V15.3501H416.189Z" fill="#3B3B3A"/>
<path fill-rule="evenodd" clip-rule="evenodd" d="M477.479 69.1499C476.047 69.2225 474.643 68.7306 473.569 67.7799C472.569 66.8599 472.109 65.3699 472.109 63.2899C470.519 65.2682 468.456 66.8127 466.109 67.7799C463.739 68.7057 461.214 69.1707 458.669 69.1499C457.023 69.1611 455.382 68.9764 453.779 68.5999C452.333 68.2593 450.972 67.6263 449.779 66.7399C448.607 65.8641 447.664 64.7183 447.029 63.3999C446.356 61.7649 446.019 60.0108 446.04 58.2427C446.061 56.4745 446.438 54.7288 447.149 53.1099C447.846 51.774 448.846 50.6199 450.069 49.7399C451.329 48.8421 452.732 48.1657 454.219 47.7399C455.779 47.2899 457.369 46.9199 458.999 46.6199C460.629 46.3199 462.369 46.0199 463.929 45.8399C465.316 45.6997 466.69 45.4523 468.039 45.0999C469.077 44.8577 470.043 44.3747 470.859 43.6899C471.212 43.3373 471.484 42.9124 471.656 42.4446C471.829 41.9768 471.898 41.477 471.859 40.9799C471.913 39.8159 471.643 38.6597 471.079 37.6399C470.593 36.8325 469.903 36.167 469.079 35.7099C468.227 35.2499 467.299 34.9483 466.339 34.8199C465.346 34.6695 464.343 34.5927 463.339 34.5899C461.017 34.5067 458.714 35.0343 456.659 36.1199C454.879 37.1266 453.916 39.0466 453.769 41.8799H447.459C447.489 39.7921 447.999 37.7391 448.949 35.8799C449.797 34.2797 451.018 32.9076 452.509 31.8799C454.063 30.8371 455.8 30.0974 457.629 29.6999C459.623 29.244 461.664 29.0192 463.709 29.0299C465.436 29.028 467.16 29.1517 468.869 29.3999C470.494 29.6246 472.066 30.1395 473.509 30.9199C474.886 31.6857 476.038 32.7995 476.849 34.1499C477.756 35.8077 478.192 37.6821 478.109 39.5699V59.3199C478.071 60.4129 478.158 61.5068 478.369 62.5799C478.536 63.2799 479.116 63.6299 480.109 63.6299C480.768 63.6054 481.418 63.4806 482.039 63.2599V68.1399C480.642 68.8634 479.081 69.2081 477.509 69.1399L477.479 69.1499ZM468.649 49.8299C467.369 50.1099 466.019 50.3299 464.649 50.4999C463.279 50.6699 461.819 50.8699 460.389 51.0899C459.062 51.284 457.765 51.647 456.529 52.1699C455.438 52.6301 454.482 53.3595 453.749 54.2899C452.975 55.3778 452.594 56.6968 452.669 58.0299C452.637 58.8939 452.829 59.7517 453.226 60.5194C453.624 61.287 454.214 61.9384 454.939 62.4099C455.657 62.8936 456.462 63.2333 457.309 63.4099C458.222 63.61 459.154 63.7106 460.089 63.7099C461.907 63.7512 463.716 63.4597 465.429 62.8499C466.763 62.366 467.994 61.6367 469.059 60.6999C469.941 59.9144 470.649 58.954 471.139 57.8799C471.56 56.9838 471.788 56.0096 471.809 55.0199V48.5599C470.864 49.2132 469.784 49.6471 468.649 49.8299Z" fill="#3B3B3A"/>
<path fill-rule="evenodd" clip-rule="evenodd" d="M108.369 87.8601V83.6701H113.239V79.3601C113.165 78.3767 113.306 77.389 113.651 76.4653C113.996 75.5416 114.538 74.7039 115.239 74.0101C116.946 72.6831 119.083 72.0348 121.239 72.1901C121.754 72.1964 122.268 72.2332 122.779 72.3001C123.302 72.3649 123.818 72.4787 124.319 72.6401V76.7801C123.886 76.6267 123.436 76.5227 122.979 76.4701C122.531 76.4209 122.08 76.3942 121.629 76.3901C120.685 76.3309 119.745 76.5649 118.939 77.0601C118.578 77.3783 118.298 77.7789 118.124 78.2279C117.95 78.677 117.886 79.1614 117.939 79.6401V83.6401H123.539V87.8301H117.939V112.58H113.189V87.8601H108.369Z" fill="#3B3B3A"/>
<path fill-rule="evenodd" clip-rule="evenodd" d="M132.169 83.6799V89.7799H132.279C133.215 87.6979 134.685 85.9004 136.539 84.5699C138.455 83.3987 140.689 82.8535 142.929 83.0099V88.0099C141.268 87.972 139.614 88.2398 138.049 88.7999C136.785 89.2672 135.665 90.0566 134.799 91.0899C133.949 92.1722 133.338 93.4233 133.009 94.7599C132.613 96.3963 132.425 98.0763 132.449 99.7599V112.63H127.699V83.6799H132.169Z" fill="#3B3B3A"/>
<path fill-rule="evenodd" clip-rule="evenodd" d="M166.019 110.77C163.641 112.484 160.758 113.353 157.829 113.24C155.773 113.282 153.731 112.901 151.829 112.12C150.179 111.409 148.709 110.336 147.529 108.98C146.335 107.571 145.446 105.93 144.919 104.16C144.317 102.177 143.981 100.122 143.919 98.0501C143.893 95.9902 144.231 93.9419 144.919 92.0001C145.546 90.2426 146.507 88.6229 147.749 87.2301C148.956 85.8957 150.427 84.8265 152.069 84.0901C153.789 83.3341 155.65 82.9524 157.529 82.9701C159.774 82.8816 161.998 83.4367 163.939 84.5701C165.601 85.5889 167.004 86.9785 168.039 88.6301C169.064 90.2776 169.782 92.0969 170.159 94.0001C170.544 95.8203 170.705 97.6808 170.639 99.5401H148.939C148.893 100.763 149.045 101.986 149.389 103.16C149.717 104.263 150.272 105.285 151.019 106.16C151.803 107.065 152.78 107.783 153.879 108.26C155.175 108.809 156.572 109.078 157.979 109.05C159.752 109.13 161.505 108.639 162.979 107.65C164.344 106.608 165.259 105.084 165.539 103.39H170.239C169.82 106.283 168.319 108.91 166.039 110.74L166.019 110.77ZM164.869 92.1501C164.463 91.1765 163.868 90.2929 163.119 89.5501C162.351 88.7811 161.437 88.1741 160.43 87.7653C159.424 87.3564 158.345 87.154 157.259 87.1701C156.113 87.1503 154.976 87.3682 153.919 87.8101C152.959 88.2238 152.089 88.8218 151.359 89.5701C150.643 90.3292 150.073 91.214 149.679 92.1801C149.26 93.1886 149.014 94.2601 148.949 95.3501H165.619C165.555 94.2482 165.301 93.1657 164.869 92.1501Z" fill="#3B3B3A"/>
<path fill-rule="evenodd" clip-rule="evenodd" d="M196.099 110.77C193.721 112.484 190.838 113.353 187.909 113.24C185.853 113.282 183.811 112.901 181.909 112.12C180.262 111.407 178.796 110.334 177.619 108.98C176.425 107.571 175.536 105.93 175.009 104.16C174.402 102.178 174.065 100.122 174.009 98.0501C173.978 95.9898 174.316 93.9406 175.009 92C175.633 90.2431 176.59 88.6234 177.829 87.23C179.037 85.897 180.508 84.828 182.149 84.09C183.869 83.3341 185.73 82.9523 187.609 82.9701C189.857 82.883 192.084 83.438 194.029 84.57C195.688 85.5889 197.088 86.9787 198.119 88.6301C199.151 90.275 199.873 92.095 200.249 94C200.63 95.8207 200.788 97.6811 200.719 99.54H179.019C178.983 100.763 179.135 101.983 179.469 103.16C179.797 104.263 180.352 105.285 181.099 106.16C181.886 107.067 182.867 107.784 183.969 108.26C185.265 108.809 186.662 109.078 188.069 109.05C189.842 109.13 191.595 108.639 193.069 107.65C194.428 106.604 195.339 105.082 195.619 103.39H200.329C199.901 106.28 198.402 108.904 196.129 110.74L196.099 110.77ZM194.939 92.15C194.533 91.1789 193.942 90.2959 193.199 89.5501C191.995 88.4025 190.485 87.6276 188.851 87.3189C187.217 87.0101 185.528 87.1807 183.989 87.81C183.03 88.2203 182.163 88.8188 181.439 89.57C180.72 90.3287 180.147 91.2135 179.749 92.18C179.335 93.1901 179.089 94.2608 179.019 95.35H195.699C195.626 94.2483 195.37 93.1666 194.939 92.15Z" fill="#3B3B3A"/>
<path fill-rule="evenodd" clip-rule="evenodd" d="M209.959 83.68V89.78H210.069C211.005 87.698 212.475 85.9005 214.329 84.57C216.242 83.4002 218.472 82.855 220.709 83.01V88.01C219.051 87.9719 217.4 88.2397 215.839 88.8C214.576 89.2698 213.457 90.0587 212.589 91.09C211.739 92.1723 211.128 93.4234 210.799 94.76C210.403 96.3964 210.215 98.0764 210.239 99.76V112.63H205.489V83.68H209.959Z" fill="#3B3B3A"/>
<path fill-rule="evenodd" clip-rule="evenodd" d="M224.589 78.4301V72.6101H229.369V78.4301H224.589ZM229.369 83.6601V112.66H224.619V83.6601H229.369Z" fill="#3B3B3A"/>
<path fill-rule="evenodd" clip-rule="evenodd" d="M257.859 112.62V108.7H257.769C257.013 110.279 255.693 111.517 254.069 112.17C252.31 112.897 250.422 113.261 248.519 113.24C246.496 113.285 244.49 112.86 242.659 112C241.047 111.223 239.629 110.096 238.509 108.7C237.376 107.267 236.528 105.631 236.009 103.88C235.441 101.989 235.158 100.024 235.169 98.0501C235.157 96.078 235.43 94.1144 235.979 92.2201C236.481 90.4773 237.32 88.8499 238.449 87.4301C239.573 86.0509 240.99 84.9405 242.599 84.1801C244.418 83.339 246.405 82.9251 248.409 82.9701C249.217 82.9792 250.023 83.0528 250.819 83.1901C251.702 83.3553 252.567 83.61 253.399 83.9501C254.266 84.3167 255.085 84.7868 255.839 85.3501C256.613 85.9419 257.268 86.6748 257.769 87.5101H257.879V72.6101H262.629V112.61L257.859 112.62ZM240.709 102.32C241.042 103.558 241.594 104.726 242.339 105.77C243.073 106.779 244.031 107.604 245.139 108.18C246.379 108.8 247.752 109.109 249.139 109.08C250.48 109.139 251.815 108.853 253.014 108.249C254.213 107.645 255.237 106.743 255.989 105.63C256.711 104.567 257.233 103.381 257.529 102.13C258.189 99.4704 258.189 96.6898 257.529 94.0301C257.224 92.7718 256.681 91.5836 255.929 90.5301C255.186 89.5093 254.218 88.6742 253.099 88.0901C251.792 87.4447 250.346 87.1289 248.889 87.1701C247.463 87.1274 246.051 87.4547 244.789 88.1201C243.697 88.7283 242.771 89.5932 242.089 90.6401C241.396 91.7373 240.905 92.9498 240.639 94.2201C240.338 95.5829 240.187 96.9745 240.189 98.3701C240.18 99.7044 240.355 101.034 240.709 102.32Z" fill="#3B3B3A"/>
<path fill-rule="evenodd" clip-rule="evenodd" d="M290.459 110.77C288.081 112.484 285.198 113.353 282.269 113.24C280.213 113.282 278.171 112.901 276.269 112.12C274.622 111.407 273.156 110.334 271.979 108.98C270.785 107.571 269.896 105.93 269.369 104.16C268.767 102.176 268.431 100.122 268.369 98.05C268.343 95.9902 268.681 93.9419 269.369 92C269.992 90.2407 270.954 88.6203 272.199 87.23C273.402 85.895 274.87 84.8256 276.509 84.09C278.233 83.3342 280.097 82.9524 281.979 82.97C284.224 82.8844 286.448 83.4393 288.389 84.57C290.048 85.5889 291.448 86.9787 292.479 88.63C293.511 90.275 294.233 92.095 294.609 94C294.989 95.821 295.15 97.6808 295.089 99.54H273.369C273.323 100.763 273.475 101.986 273.819 103.16C274.143 104.264 274.699 105.287 275.449 106.16C276.233 107.065 277.211 107.783 278.309 108.26C279.605 108.809 281.002 109.078 282.409 109.05C284.183 109.13 285.935 108.639 287.409 107.65C288.768 106.603 289.682 105.081 289.969 103.39H294.669C294.246 106.282 292.746 108.907 290.469 110.74L290.459 110.77ZM289.299 92.15C288.893 91.1814 288.306 90.299 287.569 89.55C286.822 88.8139 285.943 88.2238 284.979 87.81C283.942 87.373 282.825 87.1551 281.699 87.17C280.553 87.1503 279.416 87.3682 278.359 87.81C277.396 88.2177 276.525 88.8164 275.799 89.57C275.083 90.3291 274.514 91.214 274.119 92.18C273.696 93.1871 273.449 94.2594 273.389 95.35H290.059C289.987 94.2483 289.73 93.1666 289.299 92.15Z" fill="#3B3B3A"/>
<path fill-rule="evenodd" clip-rule="evenodd" d="M318.469 80.5801C317.455 79.718 316.147 79.2809 314.819 79.3601C313.795 79.3352 312.782 79.5763 311.879 80.0601C311.05 80.5216 310.331 81.1559 309.769 81.9201C309.199 82.7169 308.773 83.6069 308.509 84.5501C307.932 86.5085 307.932 88.5918 308.509 90.5501C308.775 91.4894 309.201 92.3757 309.769 93.1701C310.331 93.9343 311.05 94.5687 311.879 95.0301C312.779 95.5217 313.794 95.7667 314.819 95.7401C315.523 95.7414 316.22 95.602 316.869 95.3301C317.504 95.0583 318.084 94.6718 318.579 94.1901C319.086 93.6892 319.502 93.1038 319.809 92.4601C320.136 91.7715 320.336 91.0296 320.399 90.2701H322.749C322.555 92.3341 321.646 94.2654 320.179 95.7301C318.717 97.0569 316.792 97.757 314.819 97.6801C313.479 97.7064 312.15 97.4331 310.929 96.8801C309.832 96.3688 308.86 95.625 308.079 94.7001C307.303 93.7417 306.723 92.6411 306.369 91.4601C305.569 88.9046 305.569 86.1657 306.369 83.6101C306.742 82.4333 307.34 81.3399 308.129 80.3901C308.912 79.4651 309.884 78.7183 310.979 78.2001C312.196 77.6323 313.527 77.3517 314.869 77.3801C316.747 77.3227 318.59 77.9005 320.099 79.0201C320.84 79.6269 321.449 80.3792 321.887 81.2306C322.326 82.0821 322.585 83.0145 322.649 83.9701H320.299C320.05 82.6796 319.411 81.4965 318.469 80.5801Z" fill="#009EE3"/>
<path fill-rule="evenodd" clip-rule="evenodd" d="M338.029 78.1999C339.12 78.721 340.088 79.4674 340.869 80.3899C341.655 81.3402 342.249 82.4337 342.619 83.6099C343.406 86.1675 343.406 88.9024 342.619 91.4599C342.252 92.6372 341.657 93.7311 340.869 94.6799C340.09 95.6022 339.121 96.3458 338.029 96.8599C336.802 97.3879 335.48 97.6602 334.144 97.6602C332.808 97.6602 331.486 97.3879 330.259 96.8599C329.167 96.3458 328.198 95.6022 327.419 94.6799C326.631 93.7311 326.037 92.6372 325.669 91.4599C324.882 88.9024 324.882 86.1675 325.669 83.6099C326.039 82.4337 326.633 81.3402 327.419 80.3899C328.2 79.4674 329.168 78.721 330.259 78.1999C331.483 77.659 332.806 77.3796 334.144 77.3796C335.482 77.3796 336.805 77.659 338.029 78.1999ZM331.219 80.0599C330.392 80.5189 329.675 81.1538 329.119 81.9199C328.553 82.7173 328.13 83.6073 327.869 84.5499C327.292 86.5083 327.292 88.5916 327.869 90.5499C328.132 91.4887 328.555 92.375 329.119 93.1699C329.675 93.9361 330.392 94.571 331.219 95.0299C332.124 95.4965 333.126 95.7399 334.144 95.7399C335.162 95.7399 336.165 95.4965 337.069 95.0299C337.897 94.571 338.614 93.9361 339.169 93.1699C339.733 92.3733 340.159 91.4876 340.429 90.5499C340.993 88.5897 340.993 86.5102 340.429 84.5499C340.161 83.6084 339.735 82.7191 339.169 81.9199C338.614 81.1538 337.897 80.5189 337.069 80.0599C336.163 79.5997 335.161 79.3598 334.144 79.3598C333.128 79.3598 332.125 79.5997 331.219 80.0599Z" fill="#009EE3"/>
<path fill-rule="evenodd" clip-rule="evenodd" d="M348.889 77.94V81.18H349.009C349.566 80.0567 350.403 79.0959 351.439 78.39C352.594 77.6804 353.935 77.3321 355.289 77.39C356.5 77.3745 357.691 77.6966 358.729 78.32C359.767 78.9522 360.511 79.9699 360.799 81.15C361.308 79.9537 362.197 78.9589 363.329 78.32C364.419 77.7065 365.649 77.3861 366.899 77.39C371.153 77.39 373.276 79.6367 373.269 84.13V97.13H370.909V84.23C370.999 82.9414 370.646 81.6607 369.909 80.6C369.451 80.1399 368.894 79.7894 368.281 79.5747C367.668 79.36 367.015 79.2866 366.369 79.36C365.491 79.3274 364.619 79.5239 363.839 79.93C363.184 80.304 362.634 80.8371 362.239 81.48C361.825 82.1584 361.54 82.9077 361.399 83.69C361.237 84.5404 361.157 85.4043 361.159 86.27V97.14H358.799V84.14C358.801 83.5211 358.734 82.904 358.599 82.3C358.475 81.7521 358.248 81.2329 357.929 80.77C357.605 80.3349 357.175 79.9905 356.679 79.77C356.085 79.5063 355.439 79.3799 354.789 79.4C353.9 79.3793 353.018 79.5605 352.209 79.93C351.497 80.2739 350.882 80.7894 350.419 81.43C349.947 82.1027 349.607 82.8596 349.419 83.66C349.188 84.5752 349.074 85.516 349.079 86.46V97.18H346.719V77.98L348.889 77.94Z" fill="#009EE3"/>
<path fill-rule="evenodd" clip-rule="evenodd" d="M379.899 77.94V81.18H380.009C380.567 80.054 381.407 79.0925 382.449 78.39C383.604 77.6815 384.945 77.3334 386.299 77.39C387.51 77.3735 388.701 77.6956 389.739 78.32C390.776 78.9522 391.521 79.9699 391.809 81.15C392.318 79.9537 393.207 78.9589 394.339 78.32C395.429 77.7078 396.659 77.3874 397.909 77.39C402.162 77.39 404.286 79.6367 404.279 84.13V97.13H401.919V84.23C402.009 82.9414 401.656 81.6608 400.919 80.6C400.459 80.1385 399.901 79.7872 399.286 79.5724C398.672 79.3577 398.016 79.285 397.369 79.36C396.491 79.3274 395.619 79.5239 394.839 79.93C394.184 80.304 393.634 80.8371 393.239 81.48C392.825 82.1584 392.54 82.9077 392.399 83.69C392.237 84.5404 392.157 85.4043 392.159 86.27V97.14H389.799V84.14C389.806 83.5209 389.738 82.9032 389.599 82.3C389.475 81.7521 389.247 81.2329 388.929 80.77C388.607 80.3375 388.18 79.9935 387.689 79.77C387.091 79.5065 386.442 79.3801 385.789 79.4C384.9 79.3803 384.018 79.5615 383.209 79.93C382.497 80.2739 381.882 80.7894 381.419 81.43C380.946 82.1027 380.607 82.8596 380.419 83.66C380.192 84.5757 380.081 85.5165 380.089 86.46V97.18H377.729V77.98L379.899 77.94Z" fill="#009EE3"/>
<path fill-rule="evenodd" clip-rule="evenodd" d="M422.149 97.1399V93.6799H422.059C421.489 94.934 420.547 95.9817 419.359 96.6799C418.161 97.3571 416.805 97.7023 415.429 97.6799C414.371 97.7055 413.316 97.536 412.319 97.1799C411.513 96.8829 410.794 96.3877 410.229 95.7399C409.67 95.0829 409.27 94.3062 409.059 93.4699C408.798 92.4916 408.67 91.4825 408.679 90.4699V77.9399H411.039V90.4299C410.982 91.8458 411.409 93.2389 412.249 94.3799C413.009 95.2699 414.319 95.7199 416.179 95.7199C417.092 95.7457 417.995 95.5209 418.789 95.0699C419.508 94.6354 420.12 94.044 420.579 93.3399C421.047 92.5776 421.385 91.7429 421.579 90.8699C421.798 89.9358 421.909 88.9795 421.909 88.0199V77.9399H424.369V97.1399H422.149Z" fill="#009EE3"/>
<path fill-rule="evenodd" clip-rule="evenodd" d="M431.049 77.94V81.25H431.119C431.579 80.0723 432.42 79.0829 433.509 78.44C434.639 77.7352 435.947 77.3675 437.279 77.38C438.425 77.3464 439.567 77.5227 440.649 77.9C441.489 78.2026 442.241 78.7075 442.839 79.37C443.403 80.0435 443.798 80.8425 443.989 81.7C444.228 82.7123 444.342 83.75 444.329 84.79V97.14H441.969V85.14C441.975 84.3711 441.902 83.6036 441.749 82.85C441.617 82.1898 441.352 81.5636 440.969 81.01C440.576 80.4767 440.053 80.0531 439.449 79.78C438.704 79.4613 437.898 79.3111 437.089 79.34C436.223 79.3256 435.364 79.496 434.569 79.84C433.855 80.1578 433.22 80.629 432.709 81.22C432.18 81.8286 431.775 82.5354 431.519 83.3C431.225 84.1431 431.066 85.0273 431.049 85.92V97.12H428.689V77.92L431.049 77.94Z" fill="#009EE3"/>
<path fill-rule="evenodd" clip-rule="evenodd" d="M451.119 70.55V74.31H448.759V70.55H451.119ZM451.119 77.93V97.14H448.759V77.93H451.119Z" fill="#009EE3"/>
<path fill-rule="evenodd" clip-rule="evenodd" d="M463.229 77.9401V79.9401H459.369V92.8701C459.342 93.4896 459.452 94.1073 459.689 94.6801C459.899 95.1101 460.419 95.3501 461.259 95.4001C461.927 95.4021 462.595 95.3687 463.259 95.3001V97.3001C462.919 97.3001 462.569 97.3001 462.259 97.3001H461.259C460.093 97.4227 458.924 97.0974 457.989 96.3901C457.379 95.7901 457.079 94.6601 457.099 93.0301V79.9101H453.749V77.9101H457.099V72.1201H459.369V77.9101L463.229 77.9401Z" fill="#009EE3"/>
<path fill-rule="evenodd" clip-rule="evenodd" d="M466.979 77.9401L473.309 94.3201L479.219 77.9401H481.569L473.229 100.06C472.931 100.744 472.597 101.412 472.229 102.06C471.971 102.538 471.632 102.967 471.229 103.33C470.86 103.644 470.426 103.873 469.959 104C469.357 104.145 468.738 104.213 468.119 104.2L467.019 104.14C466.799 104.144 466.581 104.117 466.369 104.06V102.06L467.169 102.19C467.435 102.21 467.702 102.21 467.969 102.19C468.409 102.206 468.848 102.131 469.259 101.97C469.585 101.824 469.881 101.617 470.129 101.36C470.395 101.064 470.611 100.726 470.769 100.36C470.939 99.9901 471.119 99.5801 471.319 99.1301L472.139 96.9701L464.469 77.8501L466.979 77.9401Z" fill="#009EE3"/>
</svg>
