<svg id="Слой_1" data-name="Слой 1" xmlns="http://www.w3.org/2000/svg" width="16.98" height="15" viewBox="0 0 16.98 15"><title>Монтажная область 8</title><path d="M16.52.35a.86.86,0,0,0-.88-.17C12.93,1.31,4.28,4.83.68,6.3A.91.91,0,0,0,.19,7.48.93.93,0,0,0,.75,8L4.38,9.15l1.36,4.12a.86.86,0,0,0,.56.54h.34a.79.79,0,0,0,.49-.19L9,12.05l3.51,2.59a1.16,1.16,0,0,0,.7.24,1.26,1.26,0,0,0,.43-.08,1.15,1.15,0,0,0,.74-.89L16.84,1.19A.85.85,0,0,0,16.52.35ZM6.41,9.8V10c0,.81-.11,1.68-.16,2.33L5.17,9l5.67-3.4ZM7,12.73v-2H7l1.2.89Zm6.62,1.07a.42.42,0,0,1-.26.3.39.39,0,0,1-.39,0L9.18,11.26,7.38,9.94,13.66,4a.47.47,0,0,0,0-.59.46.46,0,0,0-.58-.1L4.65,8.42,1,7.25a.12.12,0,0,1-.09-.11A.11.11,0,0,1,1,7H1c3.59-1.47,12.25-5,15-6.1a.17.17,0,0,1,.1,0A.14.14,0,0,1,16,1Z"/><path d="M13.25,15h0a1.26,1.26,0,0,1-.77-.26L9,12.21l-1.83,1.5a.88.88,0,0,1-.56.23H6.27a1,1,0,0,1-.65-.62L4.28,9.25.71,8.12a1,1,0,0,1-.63-.59A1,1,0,0,1,.64,6.18L5.88,4c3.73-1.52,8-3.24,9.71-4a1,1,0,0,1,1,.19,1,1,0,0,1,.36,1L14.53,13.94a1.27,1.27,0,0,1-.82,1A1.18,1.18,0,0,1,13.25,15Zm0-.25h0a.9.9,0,0,0,.37-.07,1,1,0,0,0,.66-.79L16.72,1.17a.73.73,0,0,0-.27-.72h0A.73.73,0,0,0,15.68.3c-1.74.73-6,2.45-9.7,4L.73,6.41a.78.78,0,0,0-.42,1,.76.76,0,0,0,.48.45L4.42,9l.08.08,1.36,4.12a.71.71,0,0,0,.46.45h.32a.62.62,0,0,0,.41-.16L9,12a.12.12,0,0,1,.15,0l3.5,2.59a1.08,1.08,0,0,0,.62.21Zm-.1-.47a.48.48,0,0,1-.26-.07L9.11,11.36,7.31,10a.14.14,0,0,1,0-.1.13.13,0,0,1,0-.1L13.57,4a.31.31,0,0,0,0-.41.31.31,0,0,0-.41-.08L4.71,8.52a.12.12,0,0,1-.1,0L.94,7.37a.25.25,0,0,1-.17-.2A.25.25,0,0,1,.77,7,.27.27,0,0,1,.9,6.87h0C5.43,5,13.31,1.79,15.89.77a.2.2,0,0,1,.2,0l0,0a.2.2,0,0,1,0,.21l-2.43,12.8h0a.52.52,0,0,1-.34.4A.46.46,0,0,1,13.14,14.28ZM7.58,9.92l1.68,1.24L13,14a.25.25,0,0,0,.25,0,.3.3,0,0,0,.2-.22L15.89,1C13.19,2.11,5.44,5.28,1,7.09H1s0,0,0,0L4.63,8.28l8.38-5a.56.56,0,0,1,.74.13.56.56,0,0,1,0,.75Zm6,3.88ZM16,1h0ZM7,12.86h0a.14.14,0,0,1-.07-.12v-2a.11.11,0,0,1,.07-.11.11.11,0,0,1,.13,0l1.2.89a.12.12,0,0,1,.05.09.12.12,0,0,1,0,.1l-1.2,1.13ZM7.1,11v1.47L8,11.62Zm-.85,1.44a.13.13,0,0,1-.12-.09L5.05,9.06a.13.13,0,0,1,.06-.15l5.66-3.4a.13.13,0,0,1,.15.2L6.53,9.85V10c0,.66-.07,1.37-.12,1.94l0,.4a.11.11,0,0,1-.11.11ZM5.32,9.07l.86,2.6c.05-.54.1-1.14.1-1.72V9.8a.13.13,0,0,1,0-.09L9.91,6.32Z"/></svg>