<svg id="Слой_1" data-name="Слой 1" xmlns="http://www.w3.org/2000/svg" width="20.98" height="15" viewBox="0 0 20.98 15"><title>Монтажная область 9</title><path d="M16.08,14.88H4.9A4.78,4.78,0,0,1,.12,10.1V4.9A4.78,4.78,0,0,1,4.9.12H16.08A4.78,4.78,0,0,1,20.86,4.9v5.2A4.78,4.78,0,0,1,16.08,14.88ZM4.9.92a4,4,0,0,0-4,4v5.2a4,4,0,0,0,4,4H16.08a4,4,0,0,0,4-4V4.9a4,4,0,0,0-4-4Zm3.77,9.89a1.62,1.62,0,0,1-.75-.19.59.59,0,0,1-.32-.51V5a.57.57,0,0,1,.33-.51,1.33,1.33,0,0,1,1.14-.1L13.86,7a.92.92,0,0,1,.5.75.53.53,0,0,1-.29.47L9,10.73A.75.75,0,0,1,8.67,10.81ZM8.4,10a.74.74,0,0,0,.31,0L13.4,7.68,8.68,5.11a.7.7,0,0,0-.28.06Z"/><path d="M16.08,15H4.9A4.91,4.91,0,0,1,0,10.1V4.9A4.91,4.91,0,0,1,4.9,0H16.08A4.91,4.91,0,0,1,21,4.9v5.2A4.91,4.91,0,0,1,16.08,15ZM4.9.25A4.65,4.65,0,0,0,.25,4.9v5.2A4.65,4.65,0,0,0,4.9,14.75H16.08a4.65,4.65,0,0,0,4.65-4.65V4.9A4.65,4.65,0,0,0,16.08.25Zm11.18,14H4.9A4.11,4.11,0,0,1,.8,10.1V4.9A4.11,4.11,0,0,1,4.9.8H16.08a4.11,4.11,0,0,1,4.1,4.1v5.2A4.11,4.11,0,0,1,16.08,14.2ZM4.9,1.05A3.85,3.85,0,0,0,1.05,4.9v5.2A3.85,3.85,0,0,0,4.9,14H16.08a3.85,3.85,0,0,0,3.85-3.85V4.9a3.85,3.85,0,0,0-3.85-3.85Zm3.77,9.88a1.63,1.63,0,0,1-.81-.21.68.68,0,0,1-.38-.61V5a.7.7,0,0,1,.39-.62,1.46,1.46,0,0,1,1.26-.09l4.79,2.61a1.06,1.06,0,0,1,.57.85.69.69,0,0,1-.36.58l-5,2.49A.87.87,0,0,1,8.67,10.93Zm0-6.48A1.5,1.5,0,0,0,8,4.61.47.47,0,0,0,7.72,5v5.09a.47.47,0,0,0,.26.4,1.35,1.35,0,0,0,1,.11l5-2.49a.41.41,0,0,0,.23-.37.83.83,0,0,0-.44-.63L9,4.52A.78.78,0,0,0,8.66,4.45Zm0,5.68a1,1,0,0,1-.3-.05A.13.13,0,0,1,8.28,10V5.17a.13.13,0,0,1,.08-.12A.9.9,0,0,1,8.7,5h0l4.72,2.57a.14.14,0,0,1,.06.11.11.11,0,0,1-.07.11L8.77,10.12H8.66Zm-.14-.26.16,0,4.45-2.21L8.64,5.23l-.12,0Z"/></svg>