<svg id="Слой_1" data-name="Слой 1" xmlns="http://www.w3.org/2000/svg" width="23.44" height="15" viewBox="0 0 23.44 15"><title>Монтажная область 7</title><path d="M22.94,14.88H19a.39.39,0,0,1-.36-.26,6.58,6.58,0,0,0-5.07-4.69V14.5a.38.38,0,0,1-.37.38h-.44C4.91,14.88.31,9.64.12.5A.36.36,0,0,1,.23.24.36.36,0,0,1,.5.12H4.34a.38.38,0,0,1,.37.37c.11,5.6,2.37,8.39,4.46,9.2V.5A.37.37,0,0,1,9.54.12h3.62a.38.38,0,0,1,.37.38V5.59C15.42,5.12,17.42,2.9,18.12.4a.38.38,0,0,1,.36-.28H22.1a.37.37,0,0,1,.29.14.36.36,0,0,1,.08.3,11.09,11.09,0,0,1-4.54,6.89,11.54,11.54,0,0,1,5.37,7,.37.37,0,0,1-.36.48Zm-3.71-.75h3.21A10.69,10.69,0,0,0,17,7.82a.38.38,0,0,1-.21-.33A.37.37,0,0,1,17,7.15,10.39,10.39,0,0,0,21.64.87H18.76c-.92,2.89-3.32,5.3-5.56,5.54a.38.38,0,0,1-.29-.1A.37.37,0,0,1,12.78,6V.87H9.91V10.2a.37.37,0,0,1-.14.29.34.34,0,0,1-.32.07C6.93,9.93,4.2,7.05,4,.87H.88c.3,8.43,4.6,13.26,11.84,13.26h.06V9.5a.37.37,0,0,1,.13-.28.35.35,0,0,1,.28-.09A7.23,7.23,0,0,1,19.23,14.13Z"/><path d="M22.94,15H19a.48.48,0,0,1-.47-.35,6.48,6.48,0,0,0-4.84-4.58V14.5a.49.49,0,0,1-.49.5h-.44C4.83,15,.19,9.72,0,.51A.51.51,0,0,1,.14.15.48.48,0,0,1,.5,0H4.34a.51.51,0,0,1,.5.49c.1,5.34,2.21,8.14,4.2,9V.5a.5.5,0,0,1,.5-.5h3.62a.49.49,0,0,1,.49.5V5.43C15.48,4.89,17.33,2.74,18,.36A.49.49,0,0,1,18.48,0H22.1a.46.46,0,0,1,.38.18.46.46,0,0,1,.11.4,11.25,11.25,0,0,1-4.43,6.86,11.77,11.77,0,0,1,5.26,6.93.5.5,0,0,1-.08.43A.49.49,0,0,1,22.94,15ZM13.41,9.78l.14,0a6.69,6.69,0,0,1,5.17,4.78.26.26,0,0,0,.24.17h4a.25.25,0,0,0,.2-.09.23.23,0,0,0,0-.22,11.5,11.5,0,0,0-5.31-6.89l-.17-.09.16-.12A10.93,10.93,0,0,0,22.35.54a.24.24,0,0,0-.06-.2A.22.22,0,0,0,22.1.25H18.48a.25.25,0,0,0-.24.18C17.53,3,15.52,5.22,13.56,5.71l-.15,0V.5a.25.25,0,0,0-.25-.25H9.54A.25.25,0,0,0,9.29.5V9.87L9.12,9.8C7,9,4.7,6.11,4.59.49A.25.25,0,0,0,4.34.25H.5A.23.23,0,0,0,.32.32.22.22,0,0,0,.25.5C.44,9.56,5,14.75,12.72,14.75h.44a.25.25,0,0,0,.25-.25Zm9.2,4.47H19.14l0-.08a7.12,7.12,0,0,0-5.93-4.92.31.31,0,0,0-.19.06.27.27,0,0,0-.08.19v4.75h-.19C5.42,14.25,1.06,9.38.76.88V.75H4.09V.87C4.32,7,7,9.83,9.48,10.44a.25.25,0,0,0,.21,0,.23.23,0,0,0,.1-.2V.75h3.12V6a.26.26,0,0,0,.08.19.22.22,0,0,0,.19.06c2.2-.23,4.55-2.58,5.46-5.45l0-.08H21.8l0,.15a10.57,10.57,0,0,1-4.7,6.36.26.26,0,0,0,0,.45,10.88,10.88,0,0,1,5.49,6.38ZM19.32,14h2.95A10.6,10.6,0,0,0,17,7.93a.5.5,0,0,1-.29-.43.5.5,0,0,1,.25-.45A10.37,10.37,0,0,0,21.49,1H18.85c-1,2.92-3.37,5.29-5.64,5.54a.52.52,0,0,1-.39-.13A.49.49,0,0,1,12.66,6V1H10V10.2a.49.49,0,0,1-.19.39.54.54,0,0,1-.43.09C6.89,10.05,4.11,7.17,3.86,1H1c.33,8.25,4.57,13,11.65,13V9.5a.51.51,0,0,1,.16-.37A.52.52,0,0,1,13.2,9,7.41,7.41,0,0,1,19.32,14Z"/></svg>