<svg width="11" height="12" viewBox="0 0 11 12" fill="none" xmlns="http://www.w3.org/2000/svg">
<path fill-rule="evenodd" clip-rule="evenodd" d="M2.48387 3.0037C2.48387 1.3448 3.83424 0 5.5 0C7.16576 0 8.51613 1.3448 8.51613 3.0037C8.51613 4.6626 7.16576 6.0074 5.5 6.0074C3.83424 6.0074 2.48387 4.6626 2.48387 3.0037ZM5.5 1.06013C4.42215 1.06013 3.54839 1.9303 3.54839 3.0037C3.54839 4.07711 4.42215 4.94727 5.5 4.94727C6.57785 4.94727 7.45161 4.07711 7.45161 3.0037C7.45161 1.9303 6.57785 1.06013 5.5 1.06013Z" fill="#212946"/>
<path fill-rule="evenodd" clip-rule="evenodd" d="M2.66129 8.12766C1.77942 8.12766 1.06452 8.83961 1.06452 9.71786V10.5577C1.06452 10.5705 1.07382 10.5814 1.08649 10.5834C4.00948 11.0587 6.99052 11.0587 9.91351 10.5834C9.92618 10.5814 9.93548 10.5705 9.93548 10.5577V9.71785C9.93548 8.83961 9.22058 8.12766 8.33871 8.12766H8.0968C8.0781 8.12766 8.05951 8.13061 8.04173 8.13639L7.4275 8.33613C6.17504 8.74341 4.82496 8.74341 3.5725 8.33613L2.95827 8.13639C2.94049 8.13061 2.9219 8.12766 2.9032 8.12766H2.66129ZM0 9.71786C0 8.25412 1.1915 7.06753 2.66129 7.06753H2.9032C3.03413 7.06753 3.16423 7.08815 3.2887 7.12862L3.90293 7.32836C4.94068 7.66582 6.05932 7.66582 7.09707 7.32836L7.7113 7.12862C7.83577 7.08815 7.96587 7.06753 8.0968 7.06753H8.33871C9.8085 7.06753 11 8.25412 11 9.71785V10.5577C11 11.09 10.6126 11.5439 10.085 11.6297C7.04845 12.1234 3.95155 12.1234 0.914967 11.6297C0.387401 11.5439 0 11.09 0 10.5577V9.71786Z" fill="#212946"/>
</svg>
