<svg width="16" height="21" fill="none" xmlns="http://www.w3.org/2000/svg"><path fill-rule="evenodd" clip-rule="evenodd" d="M8 1.75c-3.476 0-6.25 2.717-6.25 6.016 0 2.005.82 3.733 2.285 4.81.323.237.6.591.705 1.04.087.369.186.818.284 1.293h5.952c.098-.475.197-.924.284-1.293.106-.449.382-.803.705-1.04 1.464-1.077 2.285-2.805 2.285-4.81 0-3.299-2.774-6.016-6.25-6.016zm2.689 14.66H5.31c.11.637.197 1.24.224 1.674.027.457.368.866.871.974l.196.043c.92.199 1.875.199 2.796 0l.196-.043c.503-.108.844-.517.872-.974.026-.433.112-1.037.223-1.674zM.25 7.766C.25 3.59 3.744.25 8 .25s7.75 3.341 7.75 7.516c0 2.424-1.004 4.627-2.897 6.018a.324.324 0 00-.133.176 50.74 50.74 0 00-.394 1.843c-.183.938-.332 1.848-.363 2.372-.07 1.158-.922 2.105-2.052 2.35l-.196.042c-1.13.244-2.3.244-3.43 0l-.196-.042c-1.13-.244-1.982-1.192-2.052-2.35-.031-.524-.18-1.434-.363-2.372a50.745 50.745 0 00-.394-1.843.324.324 0 00-.133-.176C1.254 12.393.25 10.19.25 7.766z" fill="#212946"/></svg>