<svg id="Слой_1" data-name="Слой 1" xmlns="http://www.w3.org/2000/svg" width="17.31" height="15" viewBox="0 0 17.31 15"><title>Монтажная область 10</title><path d="M2.81,4.75A2.53,2.53,0,0,0,2,5.3c-.18.14-.35.3-.54.42a.57.57,0,0,1-.76-.08,2.37,2.37,0,0,1-.37-.56.57.57,0,0,1,0-.59,1.42,1.42,0,0,1,.2-.28,18.87,18.87,0,0,1,3.6-3.07A5.66,5.66,0,0,1,5.3.61a1.63,1.63,0,0,1,1.9.58,3.77,3.77,0,0,1,.54,1A29.66,29.66,0,0,1,9.1,6.47c.2.79.4,1.59.59,2.38.18.06.24,0,.3-.15.5-.87,1-1.73,1.51-2.61A2.2,2.2,0,0,0,11.81,5c0-.44-.17-.62-.62-.62-.25,0-.51,0-.76,0-.45,0-.6-.23-.5-.68a1.79,1.79,0,0,1,.13-.39,5,5,0,0,1,3.79-3A2.59,2.59,0,0,1,17,2.61a6.18,6.18,0,0,1-.34,3.24A14.09,14.09,0,0,1,15,8.8a30.72,30.72,0,0,1-3.77,4.45,6,6,0,0,1-1.87,1.26,2.07,2.07,0,0,1-2.67-.72A11.45,11.45,0,0,1,5,10.71C4.45,9,3.87,7.28,3.28,5.57A1.62,1.62,0,0,0,2.81,4.75Zm-1.56.59L1.77,5a9.74,9.74,0,0,1,.86-.56.48.48,0,0,1,.71.19,3.58,3.58,0,0,1,.37.73c.34,1,.68,1.95,1,2.93a24.57,24.57,0,0,0,1.56,3.88,9.15,9.15,0,0,0,.91,1.46,1.66,1.66,0,0,0,2.16.47,5.42,5.42,0,0,0,1.3-.88,28.88,28.88,0,0,0,2.67-2.86,22.15,22.15,0,0,0,2.61-3.95,6.23,6.23,0,0,0,.65-2A4.35,4.35,0,0,0,16.32,2,2,2,0,0,0,14.26.7a4.45,4.45,0,0,0-3.84,2.81.92.92,0,0,0,0,.34h.31c.09,0,.18,0,.27,0a1.11,1.11,0,0,1,1.21,1.47,5.11,5.11,0,0,1-.45,1.14c-.49.91-1,1.8-1.53,2.69a2.81,2.81,0,0,1-.33.44A.22.22,0,0,1,9.5,9.5a7.53,7.53,0,0,1-.33-1.05c-.47-2-1.13-4-1.79-6A4,4,0,0,0,7,1.66a1.47,1.47,0,0,0-2-.58,4.09,4.09,0,0,0-.87.54C3.28,2.31,2.41,3,1.56,3.75A4.72,4.72,0,0,0,1,4.42a.55.55,0,0,0-.11.52A.47.47,0,0,0,1.25,5.34Z"/><path d="M8.39,14.85a2.21,2.21,0,0,1-1.8-1,11.66,11.66,0,0,1-1.67-3.11L4.08,8.3c-.3-.89-.61-1.79-.92-2.69l0-.08a1.41,1.41,0,0,0-.34-.64,1.61,1.61,0,0,0-.53.36l-.18.14-.15.13a2.78,2.78,0,0,1-.4.3.68.68,0,0,1-.91-.09,2.94,2.94,0,0,1-.39-.6.68.68,0,0,1,.05-.71A1.55,1.55,0,0,1,.5,4.13,19.71,19.71,0,0,1,4.12,1,6.33,6.33,0,0,1,5.26.5a1.74,1.74,0,0,1,2,.62,4,4,0,0,1,.55,1A29.87,29.87,0,0,1,9.22,6.44l.57,2.3s.05,0,.09-.1l.2-.34c.44-.74.88-1.51,1.31-2.27A2.19,2.19,0,0,0,11.69,5c0-.38-.12-.49-.5-.5a1.9,1.9,0,0,0-.34,0h-.42a.66.66,0,0,1-.55-.22.71.71,0,0,1-.07-.61A1.63,1.63,0,0,1,10,3.24a5.08,5.08,0,0,1,3.88-3,2.8,2.8,0,0,1,2.1.43,2.91,2.91,0,0,1,1.14,2,6.3,6.3,0,0,1-.34,3.3,13.86,13.86,0,0,1-1.62,3,30.2,30.2,0,0,1-3.79,4.47,6.17,6.17,0,0,1-1.91,1.29A2.55,2.55,0,0,1,8.39,14.85ZM2.81,4.63l.08,0a1.55,1.55,0,0,1,.47.8l0,.08.93,2.69c.27.82.55,1.63.84,2.45a11.88,11.88,0,0,0,1.62,3.05,2,2,0,0,0,2.53.67,5.82,5.82,0,0,0,1.84-1.23A30.09,30.09,0,0,0,14.9,8.73a13.7,13.7,0,0,0,1.6-2.92,6.05,6.05,0,0,0,.33-3.18,2.71,2.71,0,0,0-1-1.8A2.49,2.49,0,0,0,13.87.45a4.83,4.83,0,0,0-3.7,2.89,1.79,1.79,0,0,0-.12.37.55.55,0,0,0,0,.4.47.47,0,0,0,.37.13,2.71,2.71,0,0,0,.4,0h.35c.52,0,.75.24.75.75a2.43,2.43,0,0,1-.33,1.18c-.43.76-.88,1.53-1.32,2.27l-.2.35A.33.33,0,0,1,9.65,9a.11.11,0,0,1-.08-.08L9,6.5A32.11,32.11,0,0,0,7.63,2.19a3.91,3.91,0,0,0-.52-.92A1.49,1.49,0,0,0,5.34.73a6.1,6.1,0,0,0-1.09.51A18.81,18.81,0,0,0,.68,4.3a1.46,1.46,0,0,0-.19.25A.46.46,0,0,0,.45,5a2.78,2.78,0,0,0,.35.54.45.45,0,0,0,.6.06,4.5,4.5,0,0,0,.37-.28l.16-.14.17-.14a1.93,1.93,0,0,1,.68-.43Zm5.67,9.76a1.76,1.76,0,0,1-1.41-.73,9.35,9.35,0,0,1-.92-1.47,24.54,24.54,0,0,1-1.57-3.9c-.32-1-.67-2-1-2.92a2.8,2.8,0,0,0-.36-.71.36.36,0,0,0-.55-.15A5.74,5.74,0,0,0,2,4.94l-.18.12-.38.28-.14.1a.11.11,0,0,1-.1,0A.61.61,0,0,1,.74,5a.68.68,0,0,1,.13-.63L1,4.18a3.3,3.3,0,0,1,.47-.52c.88-.75,1.75-1.47,2.6-2.14A4.31,4.31,0,0,1,5,1a1.6,1.6,0,0,1,2.13.62,4,4,0,0,1,.38.84l.08.22c.62,1.87,1.27,3.81,1.72,5.78.08.34.2.68.31,1a.12.12,0,0,0,.08.09.13.13,0,0,0,.11,0,2.35,2.35,0,0,0,.31-.42l.24-.41c.43-.74.88-1.51,1.29-2.27a5.32,5.32,0,0,0,.44-1.12A1,1,0,0,0,12,4.34a1.21,1.21,0,0,0-.95-.4l-.15,0H10.4a.13.13,0,0,1-.09,0,.12.12,0,0,1,0-.09.47.47,0,0,0,0-.12.59.59,0,0,1,0-.27A4.56,4.56,0,0,1,14.25.58,2.06,2.06,0,0,1,16.43,2a4.38,4.38,0,0,1,.26,2.42A6.9,6.9,0,0,1,16,6.43a21.91,21.91,0,0,1-2.62,4,29.49,29.49,0,0,1-2.69,2.87,5.28,5.28,0,0,1-1.33.9A2.05,2.05,0,0,1,8.48,14.39ZM2.92,4.19a.62.62,0,0,1,.52.33,4.15,4.15,0,0,1,.38.76c.33.93.67,1.92,1,2.93a23.31,23.31,0,0,0,1.55,3.87,9.31,9.31,0,0,0,.9,1.43,1.52,1.52,0,0,0,2,.44,4.87,4.87,0,0,0,1.28-.86,30.24,30.24,0,0,0,2.66-2.85A21.39,21.39,0,0,0,15.8,6.32a6.37,6.37,0,0,0,.64-2A4.24,4.24,0,0,0,16.21,2,1.83,1.83,0,0,0,14.28.82a4.36,4.36,0,0,0-3.75,2.74.67.67,0,0,0,0,.16h.18l.11,0a.61.61,0,0,1,.19,0,1.42,1.42,0,0,1,1.14.49,1.22,1.22,0,0,1,.17,1.13,5.08,5.08,0,0,1-.46,1.17c-.42.77-.87,1.54-1.3,2.28l-.23.41a3.84,3.84,0,0,1-.34.46.39.39,0,0,1-.35.13.34.34,0,0,1-.25-.23,8.61,8.61,0,0,1-.33-1.06C8.6,6.53,8,4.59,7.33,2.72l-.07-.21a3.53,3.53,0,0,0-.36-.78,1.34,1.34,0,0,0-1.81-.54,4.66,4.66,0,0,0-.86.52c-.84.67-1.71,1.39-2.59,2.14a2.54,2.54,0,0,0-.44.48l-.14.17A.44.44,0,0,0,1,4.91a.37.37,0,0,0,.26.3l.09-.07a4.17,4.17,0,0,1,.38-.28l.18-.13a8.09,8.09,0,0,1,.69-.44A.81.81,0,0,1,2.92,4.19Z"/><path d="M8.39,14.88a2.27,2.27,0,0,1-1.83-1,12.17,12.17,0,0,1-1.67-3.12L4,8l-.83-2.4,0-.1a1.39,1.39,0,0,0-.32-.6,1.64,1.64,0,0,0-.5.34l-.17.15L2,5.55c-.13.1-.26.21-.4.3a.72.72,0,0,1-.95-.1,2.62,2.62,0,0,1-.4-.6A.73.73,0,0,1,.26,4.4a2.25,2.25,0,0,1,.22-.3A18.81,18.81,0,0,1,4.11,1,5.73,5.73,0,0,1,5.25.47a1.75,1.75,0,0,1,2.07.63,3.64,3.64,0,0,1,.56,1A29.1,29.1,0,0,1,9.25,6.43l.56,2.26,0-.06.22-.37c.43-.75.87-1.49,1.29-2.25a2.12,2.12,0,0,0,.3-1c0-.36-.11-.46-.48-.47h-.75a.73.73,0,0,1-.58-.24.75.75,0,0,1-.07-.63,2.37,2.37,0,0,1,.14-.43A5.1,5.1,0,0,1,13.82.17a2.75,2.75,0,0,1,2.12.44,3,3,0,0,1,1.17,2,6.37,6.37,0,0,1-.35,3.32,13.77,13.77,0,0,1-1.63,3,30.61,30.61,0,0,1-3.78,4.48,6.39,6.39,0,0,1-1.93,1.29A2.6,2.6,0,0,1,8.39,14.88ZM2.81,4.59a.18.18,0,0,1,.1,0,1.57,1.57,0,0,1,.48.8l0,.09c.28.81.56,1.61.83,2.41s.62,1.82.94,2.73a11.24,11.24,0,0,0,1.62,3,1.92,1.92,0,0,0,2.49.66,6,6,0,0,0,1.82-1.22,30.75,30.75,0,0,0,3.76-4.43,13.87,13.87,0,0,0,1.59-2.92,6,6,0,0,0,.33-3.16,2.66,2.66,0,0,0-1-1.77,2.52,2.52,0,0,0-1.9-.38A4.79,4.79,0,0,0,10.2,3.35a2.17,2.17,0,0,0-.12.36.49.49,0,0,0,0,.38c.05.07.16.11.34.12h.75c.54,0,.78.25.78.78a2.35,2.35,0,0,1-.34,1.19c-.42.76-.86,1.51-1.3,2.26l-.21.36A.38.38,0,0,1,9.64,9a.13.13,0,0,1-.1-.1L9,6.5A30.64,30.64,0,0,0,7.6,2.2a3.64,3.64,0,0,0-.52-.91A1.47,1.47,0,0,0,5.35.76a5.39,5.39,0,0,0-1.08.51A18.7,18.7,0,0,0,.71,4.32a1.46,1.46,0,0,0-.19.25A.4.4,0,0,0,.48,5a1.88,1.88,0,0,0,.35.53.41.41,0,0,0,.56.06,4.39,4.39,0,0,0,.36-.28l.16-.13L2.08,5a1.86,1.86,0,0,1,.69-.44Zm5.67,9.83a1.78,1.78,0,0,1-1.43-.74,10.14,10.14,0,0,1-.93-1.47A26.11,26.11,0,0,1,4.55,8.3c-.33-1-.68-2.05-1-2.92a3.58,3.58,0,0,0-.35-.71.33.33,0,0,0-.51-.13A5.87,5.87,0,0,0,2,5l-.18.12-.36.27-.15.11a.16.16,0,0,1-.12,0A.63.63,0,0,1,.71,5a.69.69,0,0,1,.14-.66L1,4.16a3.37,3.37,0,0,1,.48-.52c.9-.77,1.75-1.47,2.6-2.15A4.39,4.39,0,0,1,5,.94a1.61,1.61,0,0,1,2.16.64,3.6,3.6,0,0,1,.39.84l.09.26c.62,1.86,1.26,3.79,1.71,5.74.08.34.2.68.31,1,0,0,0,.06.06.06l.08,0a2.38,2.38,0,0,0,.3-.42l.27-.45c.42-.73.86-1.48,1.26-2.23A5,5,0,0,0,12,5.25a1,1,0,0,0-.12-.89A1.23,1.23,0,0,0,11,4l-.13,0-.13,0H10.4a.17.17,0,0,1-.12,0,.15.15,0,0,1,0-.11V3.73a.66.66,0,0,1,0-.28,4.59,4.59,0,0,1,4-2.9,2.1,2.1,0,0,1,2.21,1.38,4.5,4.5,0,0,1,.26,2.45,6.63,6.63,0,0,1-.67,2.06,21.53,21.53,0,0,1-2.63,4,29.49,29.49,0,0,1-2.69,2.87,5.2,5.2,0,0,1-1.34.91A2.06,2.06,0,0,1,8.48,14.42ZM2.92,4.16a.65.65,0,0,1,.55.35,3.85,3.85,0,0,1,.38.76c.31.87.67,1.9,1,2.93A22.81,22.81,0,0,0,6.4,12.06a9.11,9.11,0,0,0,.89,1.43,1.52,1.52,0,0,0,2,.43,5,5,0,0,0,1.26-.85,29,29,0,0,0,2.66-2.85,22,22,0,0,0,2.6-3.92,6.56,6.56,0,0,0,.63-2,4.17,4.17,0,0,0-.23-2.28A1.79,1.79,0,0,0,14.28.86a4.31,4.31,0,0,0-3.72,2.71.49.49,0,0,0,0,.13h.15l.1,0,.2,0a1.46,1.46,0,0,1,1.17.51,1.29,1.29,0,0,1,.17,1.16,5.16,5.16,0,0,1-.46,1.18C11.47,7.26,11,8,10.6,8.75l-.26.45a2.45,2.45,0,0,1-.34.46.37.37,0,0,1-.65-.11A8.11,8.11,0,0,1,9,8.49c-.45-1.94-1.08-3.86-1.7-5.71l-.09-.26a3.5,3.5,0,0,0-.36-.78A1.32,1.32,0,0,0,5.1,1.22a4.09,4.09,0,0,0-.85.52c-.84.67-1.69,1.37-2.59,2.13a4.11,4.11,0,0,0-.44.48l-.13.17A.4.4,0,0,0,1,4.9a.32.32,0,0,0,.21.27l.08-.06.38-.28.17-.11a7.05,7.05,0,0,1,.7-.46A.79.79,0,0,1,2.92,4.16Z"/><path d="M8.39,15A2.36,2.36,0,0,1,6.46,14,11.76,11.76,0,0,1,4.78,10.8C4.46,9.89,4.15,9,3.84,8.07S3.29,6.47,3,5.67l0-.1a1.48,1.48,0,0,0-.23-.49,2.31,2.31,0,0,0-.38.28l-.19.16L2,5.64A4.88,4.88,0,0,1,1.62,6,.85.85,0,0,1,.51,5.83,2.77,2.77,0,0,1,.09,5.2a.84.84,0,0,1,.06-.86A1.67,1.67,0,0,1,.39,4,19,19,0,0,1,4,.9,6,6,0,0,1,5.21.35,1.89,1.89,0,0,1,7.42,1,4.36,4.36,0,0,1,8,2,29.8,29.8,0,0,1,9.37,6.4l.49,2,.23-.4c.39-.66.79-1.34,1.16-2a1.87,1.87,0,0,0,.29-1c0-.3-.06-.35-.36-.36h-.76a.85.85,0,0,1-.66-.28.85.85,0,0,1-.1-.74,2,2,0,0,1,.15-.45,5.21,5.21,0,0,1,4-3.12A2.92,2.92,0,0,1,16,.51a3.13,3.13,0,0,1,1.21,2.05,6.49,6.49,0,0,1-.35,3.38,14.06,14.06,0,0,1-1.65,3,30.28,30.28,0,0,1-3.8,4.49,6.31,6.31,0,0,1-2,1.32A2.64,2.64,0,0,1,8.39,15ZM2.78,4.8a.18.18,0,0,1,.09,0,1.41,1.41,0,0,1,.34.65l0,.09c.27.81.55,1.61.82,2.41L5,10.72a11.62,11.62,0,0,0,1.65,3.09,2.09,2.09,0,0,0,1.73.94,2.43,2.43,0,0,0,1-.21,6.33,6.33,0,0,0,1.89-1.27A30.43,30.43,0,0,0,15,8.81a14.2,14.2,0,0,0,1.62-2.95A6.36,6.36,0,0,0,17,2.6,2.83,2.83,0,0,0,15.87.71a2.66,2.66,0,0,0-2-.42,5,5,0,0,0-3.81,3,2,2,0,0,0-.13.4.66.66,0,0,0,0,.54.63.63,0,0,0,.48.18c.14,0,.28,0,.42,0h.33c.44,0,.6.17.6.59a2.19,2.19,0,0,1-.31,1.1c-.38.68-.78,1.36-1.16,2l-.35.6-.05.07a.11.11,0,0,1-.12.05.13.13,0,0,1-.1-.09L9.14,6.46A30.56,30.56,0,0,0,7.77,2.13a3.73,3.73,0,0,0-.54-1A1.67,1.67,0,0,0,5.29.58a6.45,6.45,0,0,0-1.12.53A19.11,19.11,0,0,0,.57,4.19a2.55,2.55,0,0,0-.21.28.61.61,0,0,0,0,.62,2.57,2.57,0,0,0,.38.57.6.6,0,0,0,.8.09,3.57,3.57,0,0,0,.38-.3L2,5.32l.17-.14a2,2,0,0,1,.54-.37Zm5.61,9.9a2.06,2.06,0,0,1-1.68-.93A11.77,11.77,0,0,1,5.07,10.7C4.76,9.79,4.45,8.88,4.13,8s-.55-1.6-.82-2.41l0-.09a1.44,1.44,0,0,0-.45-.74h0a1.68,1.68,0,0,0-.65.41l0,0L2,5.27l-.16.13a3,3,0,0,1-.38.29.52.52,0,0,1-.71-.07,2.36,2.36,0,0,1-.37-.56.52.52,0,0,1,0-.56,1.7,1.7,0,0,1,.21-.27A18.58,18.58,0,0,1,4.2,1.17,5.69,5.69,0,0,1,5.31.65a1.58,1.58,0,0,1,1.87.56,3.78,3.78,0,0,1,.53,1A29.46,29.46,0,0,1,9.07,6.47l.59,2.39c.2.08.28,0,.35-.14l.22-.37c.43-.73.87-1.49,1.3-2.25A2.31,2.31,0,0,0,11.85,5c0-.46-.19-.65-.66-.66h-.76A.55.55,0,0,1,10,4.17a.61.61,0,0,1,0-.48,2.22,2.22,0,0,1,.13-.39A4.9,4.9,0,0,1,13.85.36a2.59,2.59,0,0,1,2,.4,2.76,2.76,0,0,1,1.08,1.85,6.23,6.23,0,0,1-.33,3.23A14.09,14.09,0,0,1,15,8.78a30.2,30.2,0,0,1-3.77,4.45,6.26,6.26,0,0,1-1.86,1.25A2.47,2.47,0,0,1,8.39,14.7ZM2.92,4.35a.45.45,0,0,1,.39.26,3.52,3.52,0,0,1,.37.72c.25.73.64,1.83,1,2.93a24.84,24.84,0,0,0,1.56,3.89,10.58,10.58,0,0,0,.91,1.46,1.72,1.72,0,0,0,2.2.48,5,5,0,0,0,1.31-.89,29.2,29.2,0,0,0,2.68-2.86,21.71,21.71,0,0,0,2.61-3.95,6.52,6.52,0,0,0,.66-2A4.33,4.33,0,0,0,16.35,2,2,2,0,0,0,14.26.67,4.49,4.49,0,0,0,10.39,3.5a.4.4,0,0,0,0,.22.45.45,0,0,1,0,.13l0,0h.43l.18,0a1.29,1.29,0,0,1,1,.43,1.09,1.09,0,0,1,.14,1,5.3,5.3,0,0,1-.45,1.14c-.4.73-.82,1.47-1.23,2.18l-.3.5a2.68,2.68,0,0,1-.32.44.36.36,0,0,1-.15.08H9.66a.19.19,0,0,1-.14-.15,9.26,9.26,0,0,1-.32-1c-.45-2-1.09-3.88-1.7-5.73l-.09-.26A3.65,3.65,0,0,0,7,1.64a1.52,1.52,0,0,0-2-.59,4.12,4.12,0,0,0-.88.54c-.82.65-1.67,1.35-2.6,2.14a3.59,3.59,0,0,0-.46.5C1,4.29,1,4.35.94,4.4A.61.61,0,0,0,.82,5a.52.52,0,0,0,.42.42l.17-.11A4.44,4.44,0,0,1,1.79,5L2,4.85a5.67,5.67,0,0,1,.66-.42A.67.67,0,0,1,2.92,4.35ZM9.66,9.13l.06.18.15-.17A.74.74,0,0,1,9.66,9.13ZM.56,4.81a.21.21,0,0,0,0,.08Zm7.92,9.43a1.63,1.63,0,0,1-1.29-.67,9.57,9.57,0,0,1-.9-1.45A24.69,24.69,0,0,1,4.73,8.24c-.33-1-.69-2.06-1-2.93a4.64,4.64,0,0,0-.37-.74.52.52,0,0,0-.76-.2,6.28,6.28,0,0,0-.69.45l-.17.12c-.13.08-.25.17-.36.25l-.1.08a.14.14,0,0,1-.11,0,.45.45,0,0,1-.29-.36A.51.51,0,0,1,1,4.44c.05-.05.09-.11.14-.17a3.54,3.54,0,0,1,.45-.49C2.5,3,3.35,2.3,4.18,1.64a4.28,4.28,0,0,1,.87-.53A1.44,1.44,0,0,1,7,1.68a4,4,0,0,1,.37.8l.09.26c.61,1.85,1.25,3.77,1.7,5.72a9.57,9.57,0,0,0,.32,1,.29.29,0,0,0,.19.17.28.28,0,0,0,.26-.1,2.44,2.44,0,0,0,.33-.45l.26-.45c.4-.68.85-1.45,1.27-2.23a5.6,5.6,0,0,0,.45-1.15,1.15,1.15,0,0,0-.15-1.06A1.35,1.35,0,0,0,11,3.79a.42.42,0,0,0-.16,0h-.29a.12.12,0,0,1-.12-.12.39.39,0,0,1,0-.17A4.43,4.43,0,0,1,14.27.73a1.91,1.91,0,0,1,2,1.28,4.29,4.29,0,0,1,.24,2.34,6.56,6.56,0,0,1-.65,2,21.93,21.93,0,0,1-2.6,3.94,30.38,30.38,0,0,1-2.67,2.86,5,5,0,0,1-1.3.87A1.89,1.89,0,0,1,8.48,14.24ZM2.92,4a.76.76,0,0,1,.65.4,4.19,4.19,0,0,1,.4.79c.3.87.66,1.9,1,2.94A23.65,23.65,0,0,0,6.51,12a8.48,8.48,0,0,0,.88,1.4,1.39,1.39,0,0,0,1.82.4A5.21,5.21,0,0,0,10.44,13a29.94,29.94,0,0,0,2.65-2.84,21.65,21.65,0,0,0,2.58-3.89,6.68,6.68,0,0,0,.62-1.93,4,4,0,0,0-.23-2.22A1.67,1.67,0,0,0,14.29,1,4.19,4.19,0,0,0,10.7,3.57h.07a1,1,0,0,1,.24,0h0a1.6,1.6,0,0,1,1.25.55,1.38,1.38,0,0,1,.2,1.27A6.18,6.18,0,0,1,12,6.57c-.43.78-.88,1.55-1.28,2.24l-.26.45a3.33,3.33,0,0,1-.36.48.52.52,0,0,1-.49.18.51.51,0,0,1-.37-.32A10.88,10.88,0,0,1,8.9,8.52c-.45-1.95-1.08-3.86-1.7-5.7l-.09-.27a3.34,3.34,0,0,0-.34-.74,1.21,1.21,0,0,0-1.62-.48,4.58,4.58,0,0,0-.82.5C3.5,2.49,2.65,3.19,1.74,4a2.56,2.56,0,0,0-.41.45l-.15.18a.32.32,0,0,0-.06.27A.29.29,0,0,0,1.21,5l0,0,.38-.28.17-.11a5.21,5.21,0,0,1,.72-.46A.87.87,0,0,1,2.92,4Z"/></svg>